<svg id="Layer_1" data-name="Layer 1" xmlns="http://www.w3.org/2000/svg" viewBox="0 0 85.0395 85.0391"><title>greece</title><rect x="0.767" y="0.7676" width="83.504" height="83.5039" fill="#33ace3"/><path d="M255.5771,378.1211H339.85V463.16H254.81V378.1211Zm82.7354,1.5352H256.3452V461.625h81.9673Z" transform="translate(-254.8101 -378.1211)" fill="#fff"/><path d="M267.6484,420.9629h-2.3061v-.5186h7.05v.5186H270.42a4.183,4.183,0,0,1-1.6743,3.74,6.16,6.16,0,0,1-3.5039,1.1328,5.5561,5.5561,0,0,1-4.4468-2.1308,7.56,7.56,0,0,1-1.7783-4.9883,7.4451,7.4451,0,0,1,1.82-5.0117,5.7273,5.7273,0,0,1,4.5259-2.1172,4.9321,4.9321,0,0,1,2.6831.8144,1.2881,1.2881,0,0,0,.5371.2422c.2178,0,.4336-.1943.6519-.5791h.4541l.1416,3.6983h-.5157q-.843-3.6592-3.99-3.6563a3.32,3.32,0,0,0-2.3877.7354,3.1929,3.1929,0,0,0-.918,1.8574,23.2865,23.2865,0,0,0-.167,3.2061,31.3625,31.3625,0,0,0,.2466,4.9628,3.0055,3.0055,0,0,0,1.022,1.834,2.9412,2.9412,0,0,0,1.8892.6143,3.3729,3.3729,0,0,0,1.5869-.3653,1.6152,1.6152,0,0,0,.873-1.0908,9.7906,9.7906,0,0,0,.1782-2.1709Zm6.4869,4.041h-2.1421v.5166h6.7v-.5166h-2.1421v-6.4707h1.269c1.355,0,2.2212.2949,2.606.8809a3.2343,3.2343,0,0,1,.5717,1.7812l-.0419,1.7256a2.9843,2.9843,0,0,0,.6733,1.8271,2.747,2.747,0,0,0,2.3628.9356,5.1964,5.1964,0,0,0,1.709-.3047v-.499a3.1129,3.1129,0,0,1-.8521.1416,1.0577,1.0577,0,0,1-.86-.3672,2.9658,2.9658,0,0,1-.3091-1.6914,4.1832,4.1832,0,0,0-1.0908-3.27,5.8481,5.8481,0,0,0-2.7969-1.3008v-.0488a7.5335,7.5335,0,0,0,3.3686-1.21,2.5491,2.5491,0,0,0,.9942-2.09,2.73,2.73,0,0,0-.6792-1.833,3.1688,3.1688,0,0,0-1.6177-1.0508,9.4126,9.4126,0,0,0-2.4033-.2559h-7.4619v.52h2.1421Zm2.416-12.581h2.3051a6.356,6.356,0,0,1,1.397.125,1.5522,1.5522,0,0,1,.9077.6757,3.154,3.154,0,0,1,.3741,1.7364,4.5168,4.5168,0,0,1-.3711,2.1171,1.5648,1.5648,0,0,1-.9878.8233,7.6758,7.6758,0,0,1-1.7979.1582h-1.8271Zm14.2549,0V418.26h1.227a4.2009,4.2009,0,0,0,1.1021-.125,1.4955,1.4955,0,0,0,.811-.6866,3.5692,3.5692,0,0,0,.4131-1.747h.5259v5.7676h-.5259a3.2912,3.2912,0,0,0-.6353-2.1661,2.3811,2.3811,0,0,0-1.6909-.5234h-1.227v6.2246h2.769a4.3327,4.3327,0,0,0,3.2661-.9912,5.042,5.042,0,0,0,1.0811-3.05h.52l-.1323,4.5576H286.2354v-.5166h2.1621v-12.581h-2.1621v-.52h11.5761l.232,3.6358h-.5162a3.9253,3.9253,0,0,0-1.0849-2.3848,4.1005,4.1005,0,0,0-2.7422-.7314Zm13.2055,0V418.26h1.2266a4.1982,4.1982,0,0,0,1.1015-.125,1.4961,1.4961,0,0,0,.8116-.6866,3.57,3.57,0,0,0,.4131-1.747h.5273v5.7676h-.5273a3.3,3.3,0,0,0-.6348-2.1661,2.3858,2.3858,0,0,0-1.6914-.5234h-1.2266v6.2246H306.78a4.33,4.33,0,0,0,3.2646-.9912,5.0332,5.0332,0,0,0,1.0821-3.05h.5195l-.1309,4.5576H299.44v-.5166h2.163v-12.581H299.44v-.52h11.5761l.2324,3.6358h-.5156a3.9286,3.9286,0,0,0-1.0849-2.3848,4.1032,4.1032,0,0,0-2.7422-.7314Zm18.5244-.6729v4.042H322.1q-.7119-3.687-3.6777-3.6846a2.5024,2.5024,0,0,0-2.3262,1.2481q-.7266,1.248-.7305,5.2607a20.9983,20.9983,0,0,0,.3145,4.4883,2.8012,2.8012,0,0,0,1.0928,1.6992,3.0429,3.0429,0,0,0,1.7119.5137,3.4587,3.4587,0,0,0,2.2881-.92,5.9493,5.9493,0,0,0,1.6591-2.9493h.4786l-.1631,4.1524h-.4151a2.6411,2.6411,0,0,0-.7324-1.0957,4.7828,4.7828,0,0,1-7.23-.71,7.343,7.343,0,0,1-1.7744-4.9951,7.7391,7.7391,0,0,1,1.7441-5.1152,5.1608,5.1608,0,0,1,4.0411-2.0967A4.4222,4.4222,0,0,1,321.5,412.86a8.0435,8.0435,0,0,0,.6-1.11Zm5.7217.6729V418.26h1.2276a4.2169,4.2169,0,0,0,1.1025-.125,1.5007,1.5007,0,0,0,.81-.6866,3.5694,3.5694,0,0,0,.4121-1.747h.5274v5.7676h-.5274a3.2774,3.2774,0,0,0-.6347-2.1661,2.3832,2.3832,0,0,0-1.69-.5234h-1.2276v6.2246h2.77a4.3324,4.3324,0,0,0,3.2657-.9912,5.0261,5.0261,0,0,0,1.08-3.05h.52l-.1309,4.5576H323.6865v-.5166H325.85v-12.581h-2.1631v-.52h11.5752l.2334,3.6358h-.5166a3.9179,3.9179,0,0,0-1.0859-2.3848,4.0938,4.0938,0,0,0-2.74-.7314Z" transform="translate(-254.8101 -378.1211)" fill="#fff"/></svg>